<?xml version="1.0" encoding="UTF-8" standalone="no"?>
<!-- Uploaded to: SVG Repo, www.svgrepo.com, Generator: SVG Repo Mixer Tools -->

<svg
   width="391.84509"
   height="400"
   viewBox="0 0 37.225284 38"
   version="1.1"
   enable-background="new 0 0 76.00 76.00"
   xml:space="preserve"
   id="svg4"
   sodipodi:docname="rebels.svg"
   inkscape:version="1.1.1 (3bf5ae0d25, 2021-09-20)"
   xmlns:inkscape="http://www.inkscape.org/namespaces/inkscape"
   xmlns:sodipodi="http://sodipodi.sourceforge.net/DTD/sodipodi-0.dtd"
   xmlns="http://www.w3.org/2000/svg"
   xmlns:svg="http://www.w3.org/2000/svg"><defs
   id="defs8" /><sodipodi:namedview
   id="namedview6"
   pagecolor="#505050"
   bordercolor="#ffffff"
   borderopacity="1"
   inkscape:pageshadow="0"
   inkscape:pageopacity="0"
   inkscape:pagecheckerboard="1"
   showgrid="false"
   fit-margin-top="0"
   fit-margin-left="0"
   fit-margin-right="0"
   fit-margin-bottom="0"
   inkscape:zoom="1.0025"
   inkscape:cx="195.51122"
   inkscape:cy="148.12968"
   inkscape:window-width="1920"
   inkscape:window-height="991"
   inkscape:window-x="-9"
   inkscape:window-y="-9"
   inkscape:window-maximized="1"
   inkscape:current-layer="svg4" />
	<path
   fill="#000000"
   fill-opacity="1"
   stroke-linejoin="round"
   d="m 0.00898268,18.5442 c 0.2292,-6.0698 3.30510002,-11.6685 8.92900002,-15.3683 0.0166,0.0063 0.1622,-0.0468 0.0957,0.0791 -0.4459,0.413 -8.45480002,9.8736 -1.0825,17.3416 0,0 3.8733003,3.7231 6.8762003,0.19 0,0 2.9644,-3.8367 -0.0373,-9.6526 0,0 -0.7595,-1.8996 -3.4965,-3.077 l 2.2043,-2.4323 c 0,0 1.8628,0.7993 3.3051,2.9669 0,0 0.0767,-2.2823 -1.6716,-4.7145 l 3.418,-3.8771 3.383,3.8411 c 0,0 -1.5557,2.2041 -1.6703,4.7865 0,0 1.0622,-1.7481 3.3437,-3.0029 l 2.1644,2.4323 c 0,0 -2.0814,0.6853 -3.4756,3.0517 -1.1989,2.1928 -2.1219,6.8819 0.0539,9.7583 0,0 2.4348,3.4527 6.7186,-0.204 0,0 7.8757,-7.0568 -0.8077,-17.2591 0,0 -0.4743,-0.4193 0.0584,-0.1912 3.8378,2.7939 8.4332,6.4791 8.9075,15.6749 C 37.038483,30.0393 29.570583,38 18.665783,38 7.9885827,38 -0.31161732,29.0899 0.00898268,18.5442 Z"
   id="path2"
   style="fill:#550000" />
</svg>
